<?xml version="1.0" encoding="iso-8859-1"?>
<!-- Generator: Adobe Illustrator 19.0.0, SVG Export Plug-In . SVG Version: 6.00 Build 0)  -->
<svg version="1.1" id="Capa_1" xmlns="http://www.w3.org/2000/svg" xmlns:xlink="http://www.w3.org/1999/xlink" x="0px" y="0px"
	 viewBox="0 0 479.999 479.999" style="enable-background:new 0 0 479.999 479.999;" xml:space="preserve">
<g>
	<path style="fill:#88B337;" d="M383.999,47.999h-280c0-17.673,14.327-32,32-32h248V47.999z"/>
	<path style="fill:#88B337;" d="M391.999,7.999c8.837,0,16,7.163,16,16v32l0,0h-32l0,0v-32
		C375.999,15.162,383.163,7.999,391.999,7.999z"/>
</g>
<path style="fill:#6A9923;" d="M359.999,471.999h-240l-32-376h304L359.999,471.999z"/>
<path style="fill:#77A226;" d="M87.999,47.999h304c17.673,0,32,14.327,32,32v16l0,0h-368l0,0v-16
	C55.999,62.326,70.326,47.999,87.999,47.999z"/>
<g>
	<path style="fill:#618C20;" d="M389.959,119.999l2.04-24h-304l2.04,24H389.959z"/>
	<path style="fill:#618C20;" d="M118.815,458.119l1.184,13.88h240l25.648-301.344C306.191,332.967,196.519,416.607,118.815,458.119
		L118.815,458.119z"/>
</g>
<g>
	<path style="fill:#88B337;" d="M285.007,247.999c-2.761,0.003-5.329-1.419-6.792-3.76l-38.216-61.144l-9.216,14.744
		c-2.342,3.756-7.284,4.902-11.04,2.56c-3.756-2.342-4.902-7.284-2.56-11.04l0,0l16-25.6c2.64-3.756,7.825-4.66,11.58-2.02
		c0.785,0.552,1.468,1.235,2.02,2.02l45,72c2.342,3.747,1.203,8.682-2.544,11.024C287.97,247.576,286.504,247.997,285.007,247.999z"
		/>
	<path style="fill:#88B337;" d="M191.999,303.999h-32c-4.418,0-8-3.582-8-8c0-1.499,0.421-2.969,1.216-4.24l45-72
		c2.342-3.756,7.284-4.902,11.04-2.56c3.756,2.342,4.902,7.284,2.56,11.04l-37.416,59.76h17.6c4.418,0,8,3.582,8,8
		S196.418,303.999,191.999,303.999L191.999,303.999z"/>
	<path style="fill:#88B337;" d="M319.999,303.999h-96c-4.418,0-8-3.582-8-8s3.582-8,8-8h81.048l-7.704-11.56
		c-2.452-3.676-1.46-8.644,2.216-11.096s8.644-1.46,11.096,2.216l16,24c2.452,3.675,1.461,8.643-2.215,11.095
		C323.126,303.531,321.58,303.999,319.999,303.999z"/>
	<path style="fill:#88B337;" d="M287.999,247.999h-32c-4.418,0-8-3.582-8-8s3.582-8,8-8h25.752l6.488-25.944
		c1.105-4.278,5.468-6.85,9.746-5.746c4.234,1.093,6.806,5.384,5.774,9.634l-8,32C294.868,245.502,291.669,247.999,287.999,247.999z
		"/>
	<path style="fill:#88B337;" d="M247.999,327.999c-2.122,0-4.156-0.844-5.656-2.344l-24-24c-3.123-3.124-3.123-8.188,0-11.312l24-24
		c3.178-3.07,8.242-2.982,11.312,0.196c2.995,3.1,2.995,8.016,0,11.116l-18.344,18.344l18.344,18.344
		c3.124,3.125,3.123,8.19-0.002,11.314C252.154,327.156,250.12,327.998,247.999,327.999z"/>
	<path style="fill:#88B337;" d="M215.999,263.999c-3.666-0.004-6.861-2.499-7.752-6.056l-6.496-25.944h-25.752c-4.418,0-8-3.582-8-8
		s3.582-8,8-8h32c3.669,0,6.868,2.497,7.76,6.056l8,32c1.074,4.286-1.53,8.63-5.816,9.704
		C217.308,263.92,216.655,264.001,215.999,263.999z"/>
</g>
<circle style="fill:#595959;" cx="359.999" cy="415.999" r="56"/>
<circle style="fill:#CFCFCF;" cx="359.999" cy="415.999" r="16"/>
<path d="M55.999,103.999h24.648l31.352,368.68c0.354,4.151,3.834,7.335,8,7.32h240c35.346-0.063,63.949-28.767,63.886-64.114
	c-0.05-28.318-18.705-53.237-45.862-61.262l21.328-250.624h24.648c4.418,0,8-3.582,8-8v-16c-0.029-12.535-5.956-24.324-16-31.824
	c0-0.064,0-0.112,0-0.176v-24C416.047,10.793,405.381,0.048,392.175,0c-6.848-0.025-13.378,2.887-17.935,7.999h-238.24
	c-19.001,0.024-35.373,13.389-39.2,32h-8.8c-22.08,0.026-39.974,17.92-40,40v16C47.999,100.417,51.581,103.999,55.999,103.999
	L55.999,103.999z M407.999,415.999c0,26.51-21.49,48-48,48s-48-21.49-48-48s21.49-48,48-48c2.72,0.015,5.434,0.264,8.112,0.744
	C391.135,372.691,407.973,392.64,407.999,415.999z M362.183,352.039c-0.352,0-0.696,0-1.048,0s-0.752-0.04-1.136-0.04
	c-0.68,0-1.336,0.08-2.016,0.104c-1.328,0-2.656,0.08-3.96,0.2c-0.56,0.048-1.104,0.128-1.656,0.192
	c-1.76,0.208-3.504,0.456-5.224,0.8h-0.088c-32.296,6.611-54.253,36.717-50.68,69.488c0.08,0.752,0.232,1.472,0.336,2.208
	c0.208,1.48,0.416,2.952,0.728,4.4c0.184,0.864,0.44,1.696,0.656,2.544c0.328,1.28,0.656,2.568,1.064,3.816
	c0.288,0.888,0.632,1.736,0.96,2.608c0.44,1.168,0.88,2.344,1.392,3.48c0.384,0.864,0.8,1.704,1.224,2.544
	c0.544,1.096,1.104,2.176,1.704,3.2c0.472,0.8,0.976,1.6,1.488,2.4c0.64,1.016,1.296,2.008,1.992,2.976
	c0.552,0.8,1.128,1.544,1.72,2.296c0.728,0.944,1.488,1.848,2.272,2.744c0.632,0.72,1.272,1.432,1.928,2.12
	c0.8,0.864,1.688,1.688,2.568,2.504c0.44,0.416,0.848,0.88,1.304,1.28h-190.4l-30.6-359.904h286.576L362.183,352.039z
	 M391.999,15.999c4.418,0,8,3.582,8,8v16h-16v-16C383.999,19.581,387.581,15.999,391.999,15.999z M135.999,23.999h232v16H113.367
	C116.77,30.417,125.832,24.011,135.999,23.999z M63.999,79.999c0-13.255,10.745-24,24-24h304c13.255,0,24,10.745,24,24v8h-352
	V79.999z"/>
<path d="M219.759,200.383c3.747,2.342,8.682,1.203,11.024-2.544c0,0,0,0,0,0l9.216-14.744l30.568,48.904h-14.568
	c-4.418,0-8,3.582-8,8s3.582,8,8,8h32c3.669,0,6.868-2.497,7.76-6.056l8-32c1.043-4.293-1.593-8.619-5.886-9.662
	c-4.25-1.032-8.54,1.54-9.634,5.774l-4.288,17.144l-37.168-59.44c-2.64-3.756-7.825-4.66-11.58-2.02
	c-0.785,0.552-1.468,1.235-2.02,2.02l-16,25.6c-2.334,3.752-1.184,8.685,2.567,11.019
	C219.754,200.379,219.757,200.381,219.759,200.383L219.759,200.383z"/>
<path d="M159.999,303.999h32c4.418,0,8-3.582,8-8s-3.582-8-8-8h-17.6l29.512-47.2l4.296,17.168c0.904,3.562,4.118,6.049,7.792,6.032
	c0.658,0.003,1.314-0.078,1.952-0.24c4.286-1.074,6.89-5.418,5.816-9.704l-8-32c-0.892-3.562-4.096-6.06-7.768-6.056h-32
	c-4.418,0-8,3.582-8,8s3.582,8,8,8h14.568l-37.352,59.76c-2.342,3.747-1.203,8.682,2.544,11.024
	C157.031,303.578,158.5,303.999,159.999,303.999L159.999,303.999z"/>
<path d="M299.559,265.343c-3.676,2.451-4.668,7.418-2.217,11.094c0,0.001,0.001,0.001,0.001,0.002l7.704,11.56h-61.736
	l10.344-10.344c3.07-3.178,2.982-8.242-0.196-11.312c-3.1-2.995-8.016-2.995-11.116,0l-24,24c-3.123,3.124-3.123,8.188,0,11.312
	l24,24c3.178,3.07,8.242,2.982,11.312-0.196c2.995-3.1,2.995-8.016,0-11.116l-10.344-10.344h76.688
	c4.418,0.001,8.001-3.581,8.001-7.999c0-1.581-0.468-3.126-1.345-4.441l-16-24c-2.451-3.676-7.418-4.668-11.094-2.217
	C299.561,265.342,299.56,265.343,299.559,265.343z"/>
<path d="M359.999,391.999c-13.255,0-24,10.745-24,24s10.745,24,24,24s24-10.745,24-24S373.254,391.999,359.999,391.999z
	 M359.999,423.999c-4.418,0-8-3.582-8-8s3.582-8,8-8s8,3.582,8,8S364.418,423.999,359.999,423.999z"/>
<g>
</g>
<g>
</g>
<g>
</g>
<g>
</g>
<g>
</g>
<g>
</g>
<g>
</g>
<g>
</g>
<g>
</g>
<g>
</g>
<g>
</g>
<g>
</g>
<g>
</g>
<g>
</g>
<g>
</g>
</svg>
