<svg height="512" viewBox="0 0 57 58" width="512" xmlns="http://www.w3.org/2000/svg"><g id="Page-1" fill="none" fill-rule="evenodd"><g id="040---Trash" fill="rgb(0,0,0)" fill-rule="nonzero" transform="translate(0 -1)"><path id="Shape" d="m49.86 22.12c2.4279918 1.1703844 4.7328022 2.5807408 6.88 4.21 1.15-4.97-1.75-10.68-4.48-11.92s-8.94.34-11.91 4.48c2.6371204.5455236 5.2132181 1.3528572 7.69 2.41l-1.24 2.737c-2.2695914-.9065399-4.6182969-1.6008408-7.016-2.074-.5434482-.0991351-1.0643649.2610518-1.1635.8045s.2610518 1.0643649.8045 1.1635c2.2374926.4471825 4.4305477 1.0934193 6.553 1.931l-.828 1.818c-1.9826929-.7667657-4.0392672-1.3267357-6.137-1.671-.3570659-.0603654-.7188672.0770285-.9458589.3591895s-.2837005.6649943-.1482543 1.000843c.1354463.3358488.4418808.572228.8011132.6179675 1.9118631.3199926 3.787577.8274402 5.6 1.515l-.825 1.839c-1.4265037-.4839802-2.9106596-.7775162-4.414-.873h-.046c-.5522847-.0121503-1.0098497.4257153-1.022.978s.4257153 1.0098497.978 1.022c1.2485292.0847729 2.4820122.3218649 3.673.706l-1.784 3.926c.6603166.1490999 1.2724652.4620523 1.78.91l1.818-4c1.0679518.6440476 2.0555489 1.4127755 2.942 2.29.3854435.3820714 1.0052829.3869579 1.3967021.0110108.3914193-.3759471.4115219-.9954796.0452979-1.3960108-1.0590504-1.0646282-2.2536468-1.9852037-3.553-2.738l.828-1.836c1.710816.9105871 3.3282212 1.986736 4.829 3.213.4211171.3589851 1.0535149.3086171 1.4125-.1125s.3086171-1.0535149-.1125-1.4125c-1.6397694-1.3477776-3.4133717-2.5239242-5.293-3.51l.82-1.82v-.007c2.0262642 1.0458773 3.9558174 2.2693331 5.766 3.656.4352004.3426927 1.0658073.2677003 1.4085-.1675.3426926-.4352004.2677004-1.0658073-.1675-1.4085-1.9349417-1.4912291-4.0037674-2.8001463-6.18-3.91zm-1.07-4.89c.1673097-.3691098.5408497-.6007463.9458592-.5865385.4050095.0142079.7613994.2714505.9024328.6513771.1410333.3799265.0388212.8074078-.2588164 1.0824468s-.7318439.3432476-1.0994756.1727146c-.4979098-.2309651-.7165995-.8200883-.49-1.32z"/><path id="Shape" d="m21.981 38.6-11.66 2.839c-.50993471.1503036-.81313012.6733235-.69015093 1.1905282s.62913933.8477787 1.15215093.7524718h.011l11.66-2.84h.016c.5282133-.1351154.8490007-.6705047.719-1.2-.0612061-.2589324-.2230776-.4827977-.4497925-.6220548-.226715-.139257-.499579-.1824229-.7582075-.1199452z"/><circle id="Oval" cx="35" cy="50" r="1"/><path id="Shape" d="m10.871 31.013-1.943.473c-1.07202131.2613837-1.72981508 1.3415974-1.47 2.414l1.183 4.859c.13067697.5364996.67146707.8655399 1.208.735l11.66-2.84c.5356049-.1311445.8639672-.6711082.734-1.207l-1.182-4.857c-.2182062-.896474-1.0213519-1.52734-1.944-1.527-.1593603.0003221-.3181254.0194544-.473.057l-4.858 1.18z"/><path id="Shape" d="m22.928 42.486-11.66 2.839h-.012c-.2528864.0636402-.470358.224677-.605.448-.1394892.226921-.1826819.5001152-.12.759l1.149 4.718c2.2397249-.4830305 4.544282-.5894883 6.819-.315 1.6406519-2.0468163 4.0141341-3.3739864 6.617-3.7l-.977-4.024c-.1307791-.5326062-.6661268-.8605066-1.2-.735z"/><rect id="Rectangle-path" height="4" rx="1" transform="matrix(.972 -.237 .237 .972 -5.886 3.788)" width="4" x="10.84" y="24.416"/><path id="Shape" d="m42.71 43.29c.3899779.3930079.3899779 1.0269921 0 1.42-.3943361.3867403-1.0256639.3867403-1.42 0-1.4-1.4-4.29-1.71-5.29-1.71-.5522847 0-1-.4477153-1-1s.4477153-1 1-1c.9908016.0207342 1.9764873.1481358 2.94.38l1.94-4.28c-.2881936-.0688909-.5836971-.1024708-.88-.1-.5691505.0030484-1.1313044.1257002-1.65.36-.2796247.1245823-.6009083.1142247-.8719281-.0281094-.2710199-.1423342-.4619163-.4009632-.5180719-.7018906-.1194978-.5850128-.4912081-1.0874117-1.0156877-1.3727902-.5244795-.2853786-1.1482052-.3246141-1.7043123-.1072098-.3451861.1371656-.7379588.0717034-1.02-.17-.2829463-.2401785-.4066842-.6191258-.32-.98.0654675-.3293339.0989565-.6642237.1-1 .0013637-2.4308303-1.7474039-4.5096955-4.1425763-4.9245295s-4.7412107.9548277-5.5574237 3.2445295l.89 3.66c.1715631.7180812.068108 1.4743738-.29 2.12 1.2758417.8552851 1.6879856 2.5429062.95 3.89.6150488.408344 1.0540938 1.0330015 1.23 1.75l1.04 4.29c.29-.02.58-.03.88-.03.5522847 0 1 .4477153 1 1s-.4477153 1-1 1c-6.22 0-8.04 3.31-8.11 3.46-.1955615.3676371-.5963556.5779548-1.01.53-1.3222064-.1764217-2.6579127-.2299838-3.99-.16-.0801301-.0016609-.1602858.0016789-.24.01-4.21.27-5.93 1.86-5.95 1.88-.19181606.1736293-.44127134.2698478-.7.27-.26780243.0016446-.52451545-.1068257-.71-.3-.38114288-.3888435-.38114288-1.0111565 0-1.4.7331024-.6280333 1.57312594-1.1191761 2.48-1.45l-1.18-4.83c-.17562035-.7200705-.07575228-1.4797813.28-2.13-1.24413795-.8289279-1.66980745-2.4585112-.99-3.79-.29020776-.0551931-.58462774-.0853042-.88-.09-2.01058215.0001965-3.82547009 1.2046766-4.606666 3.0572893-.7811959 1.8526126-.37672036 3.9929373 1.026666 5.4327107.25206427.2505234.34785307.6183523.25.96-.09029785.3444071-.35690829.6148263-.7.71-1.93917062.511816-3.19606976 2.3847403-2.93482688 4.3732298s1.95926041 3.4732041 3.96482688 3.4667702h48c2.0055665.0064339 3.703584-1.4782807 3.9648269-3.4667702s-.9956563-3.8614138-2.9348269-4.3732298c-.3430917-.0951737-.6097022-.3655929-.7-.71-.0978531-.3416477-.0020643-.7094766.25-.96 1.9014767-1.9355345 1.9096714-5.0351716.0184553-6.980733-1.8912162-1.9455615-4.9898419-2.0251609-6.9784553-.179267-.3085071.2808044-.758918.3405935-1.13.15-.3687263-.1852172-.5839049-.5797113-.54-.99l.02-.24c.0204201-.08175.0304989-.1657397.03-.25.0007499-1.1422794-.4868958-2.2303843-1.34-2.99l-1.83 4.02c.6979068.3024878 1.334949.7294416 1.88 1.26zm-27.71 13.71c-.5137531.0005163-.9443106-.3883485-.9959422-.8995008-.0516315-.5111523.2924636-.9782648.7959422-1.0804992.06601-.0121073.1328996-.0187962.2-.02.5522847 0 1 .4477153 1 1s-.4477153 1-1 1zm12-2c-.5522847 0-1-.4477153-1-1s.4477153-1 1-1 1 .4477153 1 1-.4477153 1-1 1zm1-21c-.5522847 0-1-.4477153-1-1s.4477153-1 1-1 1 .4477153 1 1-.4477153 1-1 1zm3 8c-.5522847 0-1-.4477153-1-1s.4477153-1 1-1 1 .4477153 1 1-.4477153 1-1 1zm4 11c-1.6568542 0-3-1.3431458-3-3s1.3431458-3 3-3 3 1.3431458 3 3c-.0049422 1.6548028-1.3451972 2.9950578-3 3zm12-6c.5522847 0 1 .4477153 1 1s-.4477153 1-1 1-1-.4477153-1-1 .4477153-1 1-1zm-3 8c0 .5522847-.4477153 1-1 1s-1-.4477153-1-1 .4477153-1 1-1 1 .4477153 1 1z"/><path id="Shape" d="m3 6c0 1.1045695.8954305 2 2 2h2c.95355132-.00057022 1.77408601-.67424164 1.96029804-1.60943442.18621203-.93519277-.31369307-1.87178514-1.19429804-2.23756558l1.066-1.6c.30651802-.45950091.18250089-1.08048195-.27700001-1.38699998-.45950091-.30651803-1.08048195-.18250092-1.38699999.27699998l-1.168 1.757-1.168-1.755c-.30651804-.45950091-.92749909-.58351804-1.387-.277s-.58351804.92749909-.277 1.387l1.066 1.6c-.74617344.30937403-1.23299137 1.0372339-1.234 1.845z"/><path id="Shape" d="m22 17c0 1.1045695.8954305 2 2 2h2c.9535513-.0005702 1.774086-.6742416 1.960298-1.6094344.1862121-.9351928-.313693-1.8717852-1.194298-2.2375656l1.066-1.6c.306518-.4595009.1825009-1.0804819-.277-1.387-.4595009-.306518-1.080482-.1825009-1.387.277l-1.168 1.757-1.168-1.752c-.306518-.4595009-.9274991-.583518-1.387-.277s-.583518.9274991-.277 1.387l1.066 1.6c-.7451674.3089541-1.2317817 1.0353265-1.234 1.842z"/><path id="Shape" d="m40 6c0 1.1045695.8954305 2 2 2h2c.9535513-.00057022 1.774086-.67424164 1.960298-1.60943442.1862121-.93519277-.313693-1.87178514-1.194298-2.23756558l1.066-1.6c.306518-.45950091.1825009-1.08048193-.277-1.38699996-.4595009-.30651802-1.080482-.18250092-1.387.27699996l-1.168 1.757-1.168-1.755c-.1982824-.29724499-.5400812-.46612829-.8966441-.44303318s-.6737195.23465992-.832.55500002c-.1582805.32034009-.1336383.70078819.0646441.99803316l1.066 1.6c-.7461734.30937403-1.2329914 1.0372339-1.234 1.845z"/></g></g></svg>